<svg xmlns="http://www.w3.org/2000/svg" viewBox="0 0 54 54">
  <circle cx="27" cy="27" r="25.5" fill-opacity=".004" stroke="currentColor" stroke-width="3"/>
  <path fill="currentColor" d="M27.321 33.468a1.874 1.874 0 0 1-.629-.076c-.2-.06-.382-.154-.534-.275a1.22 1.22 0 0 1-.345-.425.985.985 0 0 1-.096-.5v-16.77a.985.985 0 0 1 .096-.5c.076-.16.194-.305.345-.426a1.6 1.6 0 0 1 .534-.275 1.9 1.9 0 0 1 .63-.076c.213-.01.428.016.628.076s.383.155.535.275c.151.121.269.266.345.426.076.16.109.33.096.5v16.77a.985.985 0 0 1-.096.5 1.22 1.22 0 0 1-.345.425 1.6 1.6 0 0 1-.535.275c-.2.06-.415.087-.629.076Zm1.605 5.11V37.3a.985.985 0 0 0-.096-.5 1.218 1.218 0 0 0-.345-.425 1.6 1.6 0 0 0-.535-.276c-.2-.06-.415-.086-.629-.076a1.876 1.876 0 0 0-.629.076 1.6 1.6 0 0 0-.534.276c-.151.12-.269.265-.345.425a.985.985 0 0 0-.096.5v1.278c-.013.17.02.34.096.5.076.16.194.305.345.426a1.6 1.6 0 0 0 .534.275 1.9 1.9 0 0 0 .63.076c.213.01.428-.016.628-.076s.383-.155.535-.275c.151-.121.269-.266.345-.426a.985.985 0 0 0 .096-.5Z"/>
</svg>
