<svg xmlns="http://www.w3.org/2000/svg" fill="none" viewBox="0 0 40 24">
  <rect width="39.5" height="23.5" x=".25" y=".25" fill="#F8F8F8" stroke="#CACACA" stroke-width=".5" rx="2.15"/>
  <path fill="url(#a)" fill-rule="evenodd" d="m13.197 7.408-2.623 6.715L9.51 8.375c-.123-.649-.615-.967-1.162-.967h-4.29L4 7.586c.88.197 1.88.46 2.486.798.372.207.478.418.6.91l2.01 8.036h2.665l4.084-9.922h-2.648Z" clip-rule="evenodd"/>
  <path fill="url(#b)" fill-rule="evenodd" d="M22.755 9.963c.009-.36.341-.743 1.07-.84.36-.05 1.357-.086 2.486.449l.442-2.127A6.608 6.608 0 0 0 24.394 7c-2.49 0-4.244 1.364-4.26 3.315-.016 1.445 1.252 2.25 2.207 2.73.983.49 1.312.807 1.309 1.246-.007.673-.784.97-1.51.982-1.266.02-2.002-.352-2.588-.633l-.457 2.197c.589.278 1.677.52 2.803.533 2.649 0 4.381-1.346 4.39-3.432.01-2.647-3.557-2.793-3.533-3.975" clip-rule="evenodd"/>
  <path fill="url(#c)" fill-rule="evenodd" d="M33.164 7.408h-2.151c-.485 0-.892.235-1.074.682l-3.782 9.24h2.647l.526-1.86h3.234l.304 1.86H35.2l-2.036-9.922Z" clip-rule="evenodd"/>
  <path fill="url(#d)" fill-rule="evenodd" d="m30.055 13.61 1.328-3.766.763 3.765h-2.091Z" clip-rule="evenodd"/>
  <path fill="url(#e)" fill-rule="evenodd" d="m16.928 7.408-2.086 9.922h2.522l2.084-9.922h-2.52Z" clip-rule="evenodd"/>
  <defs>
    <linearGradient id="a" x1="4.734" x2="15.845" y1="17.023" y2="17.023" gradientUnits="userSpaceOnUse">
      <stop stop-color="#1A1E5A"/>
      <stop offset="1" stop-color="#122D98"/>
    </linearGradient>
    <linearGradient id="b" x1="19.569" x2="26.753" y1="17.048" y2="17.048" gradientUnits="userSpaceOnUse">
      <stop stop-color="#1A1E5A"/>
      <stop offset="1" stop-color="#122D98"/>
    </linearGradient>
    <linearGradient id="c" x1="26.717" x2="35.2" y1="17.023" y2="17.023" gradientUnits="userSpaceOnUse">
      <stop stop-color="#1A1E5A"/>
      <stop offset="1" stop-color="#122D98"/>
    </linearGradient>
    <linearGradient id="d" x1="30.185" x2="32.146" y1="13.493" y2="13.493" gradientUnits="userSpaceOnUse">
      <stop stop-color="white"/>
      <stop offset="1" stop-color="white"/>
    </linearGradient>
    <linearGradient id="e" x1="15.128" x2="19.448" y1="17.023" y2="17.023" gradientUnits="userSpaceOnUse">
      <stop stop-color="#1A1E5A"/>
      <stop offset="1" stop-color="#122D98"/>
    </linearGradient>
  </defs>
</svg>
