<svg xmlns="http://www.w3.org/2000/svg" viewBox="0 0 114 20">
  <path fill="currentColor" d="M21.42 0c-3.649 0-6.583 2.783-6.583 6.83 0 4.046 2.932 6.804 6.531 6.804 2.678 0 4.883-1.192 6.045-3.677L24.53 9.02c-.918 1.572-2.168 1.701-3.163 1.701-1.556 0-2.857-1.134-3.19-2.99h9.696v-1.16C27.746 2.656 24.812 0 21.42 0Zm-3.135 5.336c.404-1.599 1.859-2.372 3.134-2.372 1.352 0 2.577.721 3.01 2.371h-6.144ZM35.833.078c-3.801 0-6.94 2.705-6.94 6.752 0 4.046 3.139 6.753 6.94 6.753 3.725 0 6.86-2.707 6.86-6.753 0-4.047-3.135-6.752-6.86-6.752Zm0 10.593c-1.837 0-3.674-1.444-3.674-3.841 0-2.397 1.837-3.84 3.674-3.84 1.76 0 3.597 1.443 3.597 3.84 0 2.396-1.837 3.84-3.597 3.84ZM51.292 0c-1.734 0-3.138.516-4.21 1.416V.386h-3.367V17.63h3.368v-5.388c1.071.877 2.475 1.392 4.209 1.392 3.24 0 6.25-2.757 6.25-6.804 0-4.047-3.01-6.83-6.25-6.83Zm-.59 10.67c-1.812 0-3.623-1.469-3.623-3.84 0-2.371 1.818-3.866 3.626-3.866 2.041 0 3.572 1.495 3.572 3.865s-1.53 3.842-3.572 3.842h-.003ZM69.022 1.417C67.95.516 66.547.001 64.812.001c-3.24 0-6.25 2.784-6.25 6.83 0 4.047 3.01 6.805 6.25 6.805 1.736 0 3.139-.515 4.21-1.392v1.004h3.367V.387h-3.367v1.03ZM65.4 10.671c-2.04 0-3.572-1.47-3.572-3.841 0-2.371 1.532-3.866 3.572-3.866 1.812 0 3.623 1.495 3.623 3.865s-1.811 3.842-3.623 3.842ZM95.377.078c-3.802 0-6.94 2.705-6.94 6.752 0 4.046 3.138 6.753 6.94 6.753 3.724 0 6.86-2.707 6.86-6.753 0-4.047-3.136-6.752-6.86-6.752Zm0 10.593c-1.837 0-3.674-1.444-3.674-3.841 0-2.397 1.837-3.84 3.674-3.84 1.76 0 3.597 1.443 3.597 3.84 0 2.396-1.836 3.84-3.597 3.84ZM110.658 5.696l-3.036-.67c-.995-.232-1.148-.671-1.148-1.082 0-.596.383-1.267 1.735-1.267 1.401 0 2.295.745 2.423 1.779l3.13-1c-.576-2.052-2.603-3.46-5.451-3.46-3.215 0-5.205 1.78-5.205 4.253 0 1.856 1.301 3.17 3.597 3.66l2.603.541c1.097.232 1.401.696 1.401 1.16 0 .722-.737 1.289-1.991 1.289-1.328 0-2.449-.438-2.628-1.753l-3.331 1.065c.516 2.414 2.979 3.42 5.653 3.42 3.319 0 5.587-1.47 5.587-4.305.003-1.723-1.094-3.14-3.339-3.63ZM11.552 1.862C10.324.727 8.655.078 6.844.078 3.095.078 0 2.747 0 6.738c0 2.267 1 4.107 2.55 5.274H.454v4.2L12.077 20v-3.208l-8.342-2.665v-1.401a7.326 7.326 0 0 0 3.109.67c3.674 0 6.768-2.668 6.768-6.66 0-1.435-.402-2.698-1.086-3.73h2.015V.078h-2.989v1.784Zm-4.708 8.634c-1.799 0-3.596-1.416-3.596-3.759 0-2.342 1.797-3.758 3.596-3.758 1.723 0 3.52 1.416 3.52 3.758 0 2.343-1.797 3.76-3.52 3.76ZM85.358 1.862C84.13.727 82.46.078 80.65.078c-3.75 0-6.844 2.669-6.844 6.66 0 2.267 1 4.107 2.55 5.274H74.26v4.2L85.884 20v-3.208l-8.343-2.665v-1.401c.976.45 2.037.68 3.11.675 3.673 0 6.768-2.668 6.768-6.66 0-1.436-.402-2.699-1.087-3.73h2.015V.078h-2.99v1.784Zm-4.709 8.634c-1.797 0-3.595-1.416-3.595-3.759 0-2.342 1.798-3.758 3.596-3.758 1.723 0 3.521 1.416 3.521 3.758 0 2.343-1.798 3.76-3.522 3.76Z"/>
</svg>
